<?xml version="1.0" encoding="UTF-8"?>
<svg width="128px" height="128px" viewBox="0 0 128 128" version="1.1" xmlns="http://www.w3.org/2000/svg" xmlns:xlink="http://www.w3.org/1999/xlink">
    <!-- Generator: sketchtool 42 (36781) - http://www.bohemiancoding.com/sketch -->
    <title>68FC3D29-23F2-4C2A-B177-DF627A15BED7</title>
    <desc>Created with sketchtool.</desc>
    <defs>
        <polygon id="path-1" points="0 105 126.167 105 126.167 0.198 0 0.198"></polygon>
    </defs>
    <g id="Visual-Design---Desktop---1600" stroke="none" stroke-width="1" fill="none" fill-rule="evenodd">
        <g id="Desktop---1600px---Landing-Page-(Phase-1)" transform="translate(-1505.000000, -813.000000)">
            <g id="Our-Curriculum" transform="translate(0.000000, 598.000000)">
                <g id="Develop" transform="translate(1377.000000, 215.000000)">
                    <g id="Group-9" transform="translate(128.000000, 0.000000)">
                        <ellipse id="Oval-2" fill="#FFFFFF" cx="63.5" cy="63.5" rx="63.5" ry="63.5"></ellipse>
                        <g id="Develop-Icon" transform="translate(1.000000, 22.000000)">
                            <polygon id="Fill-1" fill="#CED4D8" points="52.75 95.833 74.917 95.833 74.917 83.5 52.75 83.5"></polygon>
                            <polygon id="Fill-2" fill="#CED4D8" points="38.957 104.302 88.71 104.302 88.71 95.833 38.957 95.833"></polygon>
                            <g id="Group-29" transform="translate(0.000000, 0.802000)">
                                <path d="M118.1667,82.6979 L13.4997,82.6979 C9.0997,82.6979 5.4997,79.0979 5.4997,74.6979 L5.4997,9.6979 C5.4997,5.2979 9.0997,1.6979 13.4997,1.6979 L118.1667,1.6979 C122.5667,1.6979 126.1667,5.2979 126.1667,9.6979 L126.1667,74.6979 C126.1667,79.0979 122.5667,82.6979 118.1667,82.6979 Z" id="Fill-3" fill="#137AD4"></path>
                                <path d="M5.4999,65.5312 L5.4999,74.6982 C5.4999,79.0982 9.0999,82.6982 13.4999,82.6982 L118.1669,82.6982 C122.5669,82.6982 126.1669,79.0982 126.1669,74.6982 L126.1669,65.5312 L5.4999,65.5312 Z" id="Fill-5" fill="#CED4D8"></path>
                                <path d="M114.1667,82.6979 L9.4997,82.6979 C5.0997,82.6979 1.4997,79.0979 1.4997,74.6979 L1.4997,9.6979 C1.4997,5.2979 5.0997,1.6979 9.4997,1.6979 L114.1667,1.6979 C118.5667,1.6979 122.1667,5.2979 122.1667,9.6979 L122.1667,74.6979 C122.1667,79.0979 118.5667,82.6979 114.1667,82.6979 Z" id="Stroke-7" stroke="#18252F" stroke-width="3"></path>
                                <path d="M1.5,65.5312 L122.167,65.5312" id="Stroke-9" stroke="#18252F" stroke-width="3"></path>
                                <mask id="mask-2" fill="white">
                                    <use xlink:href="#path-1"></use>
                                </mask>
                                <g id="Clip-12"></g>
                                <polygon id="Stroke-11" stroke="#18252F" stroke-width="3" mask="url(#mask-2)" points="48.75 95.031 70.917 95.031 70.917 82.698 48.75 82.698"></polygon>
                                <polygon id="Stroke-13" stroke="#18252F" stroke-width="3" mask="url(#mask-2)" points="34.957 103.5 84.71 103.5 84.71 95.031 34.957 95.031"></polygon>
                                <path d="M51.885,23.7812 L41.095,34.5712" id="Stroke-14" stroke="#FFFFFF" stroke-width="4" stroke-linecap="round" mask="url(#mask-2)"></path>
                                <path d="M51.885,45.2704 L41.095,34.4804" id="Stroke-15" stroke="#FFFFFF" stroke-width="4" stroke-linecap="round" mask="url(#mask-2)"></path>
                                <path d="M67.7817,45.2704 L78.5717,34.4804" id="Stroke-16" stroke="#FFFFFF" stroke-width="4" stroke-linecap="round" mask="url(#mask-2)"></path>
                                <path d="M67.7817,23.7812 L78.5717,34.5712" id="Stroke-17" stroke="#FFFFFF" stroke-width="4" stroke-linecap="round" mask="url(#mask-2)"></path>
                                <g id="Group-21" mask="url(#mask-2)" stroke-linecap="round" stroke="#FFFFFF" stroke-width="2">
                                    <g transform="translate(95.000000, 44.000000)">
                                        <path d="M0.0814,8.166 L4.0774,4.17" id="Stroke-18"></path>
                                        <path d="M4.6645,8.3875 L10.3165,8.3875" id="Stroke-19"></path>
                                        <path d="M0.0814,0.2069 L4.0774,4.2029" id="Stroke-20"></path>
                                    </g>
                                </g>
                                <path d="M96.2887,21.3232 L93.1537,21.3232 L93.7117,18.1562 L96.8467,18.1562 L96.2887,21.3232 Z M100.3307,18.1562 C100.8827,18.1562 101.3307,17.7092 101.3307,17.1562 C101.3307,16.6032 100.8827,16.1562 100.3307,16.1562 L99.2307,16.1562 L99.4277,15.0382 C99.5237,14.4942 99.1607,13.9752 98.6167,13.8802 C98.0667,13.7792 97.5537,14.1462 97.4577,14.6902 L97.1997,16.1562 L94.0647,16.1562 L94.2617,15.0382 C94.3567,14.4942 93.9937,13.9752 93.4507,13.8802 C92.9007,13.7792 92.3877,14.1462 92.2917,14.6902 L92.0337,16.1562 L90.5807,16.1562 C90.0277,16.1562 89.5807,16.6032 89.5807,17.1562 C89.5807,17.7092 90.0277,18.1562 90.5807,18.1562 L91.6807,18.1562 L91.1217,21.3232 L89.6697,21.3232 C89.1177,21.3232 88.6697,21.7702 88.6697,22.3232 C88.6697,22.8762 89.1177,23.3232 89.6697,23.3232 L90.7697,23.3232 L90.5727,24.4412 C90.4767,24.9852 90.8397,25.5042 91.3837,25.5992 C91.4427,25.6102 91.5007,25.6152 91.5587,25.6152 C92.0347,25.6152 92.4567,25.2742 92.5417,24.7892 L92.8007,23.3232 L95.9357,23.3232 L95.7387,24.4412 C95.6427,24.9852 96.0067,25.5042 96.5497,25.5992 C96.6087,25.6102 96.6667,25.6152 96.7247,25.6152 C97.2017,25.6152 97.6227,25.2742 97.7087,24.7892 L97.9667,23.3232 L99.4197,23.3232 C99.9717,23.3232 100.4197,22.8762 100.4197,22.3232 C100.4197,21.7702 99.9717,21.3232 99.4197,21.3232 L98.3197,21.3232 L98.8777,18.1562 L100.3307,18.1562 Z" id="Fill-22" fill="#FFFFFF" mask="url(#mask-2)"></path>
                                <g id="Group-25" mask="url(#mask-2)" stroke-linecap="round" stroke="#FFFFFF" stroke-width="2">
                                    <g transform="translate(22.000000, 39.000000)">
                                        <path d="M4.3962,0.7687 L0.5042,9.5097" id="Stroke-23"></path>
                                        <path d="M8.3962,0.7687 L4.5042,9.5097" id="Stroke-24"></path>
                                    </g>
                                </g>
                                <g id="Group-28" mask="url(#mask-2)" fill="#FFFFFF">
                                    <g transform="translate(19.000000, 11.000000)">
                                        <path d="M1.5339,4.6016 C2.6139,4.6016 2.9729,4.1936 3.1529,2.7666 C3.3689,1.0036 4.3519,0.3076 5.9709,0.1876 C6.5119,0.1526 6.7749,0.4046 6.7749,0.8116 C6.7749,1.1716 6.5469,1.3876 6.2109,1.4476 C5.1079,1.6396 4.8439,2.1066 4.7239,3.1986 C4.5439,4.8536 3.9569,5.3216 2.7689,5.4416 C3.4289,5.5376 3.7889,5.9566 3.7889,6.5086 C3.7889,6.8316 3.6809,7.1566 3.5729,7.4316 C3.4769,7.6836 3.3689,7.9966 3.3689,8.2716 C3.3689,8.7636 3.6329,8.9306 3.8969,9.0756 C4.0649,9.1596 4.3169,9.3506 4.3169,9.7106 C4.3169,10.1546 3.9449,10.4546 3.4769,10.3466 C2.2179,10.0466 1.6299,9.5426 1.6299,8.5956 C1.6299,8.3196 1.7019,8.0076 1.8699,7.5636 C1.9899,7.2516 2.0619,6.9046 2.0619,6.7116 C2.0619,6.3046 1.9539,6.1246 1.5339,6.0166 C0.9579,5.8966 0.7549,5.6576 0.7549,5.2966 C0.7549,4.8896 1.0659,4.6016 1.4979,4.6016 L1.5339,4.6016 Z" id="Fill-26"></path>
                                        <path d="M10.6759,5.9932 C9.5969,5.9932 9.2369,6.4002 9.0569,7.8282 C8.8409,9.5912 7.8579,10.2862 6.2389,10.4062 C5.6989,10.4422 5.4349,10.1902 5.4349,9.7822 C5.4349,9.4232 5.6629,9.2072 5.9989,9.1472 C7.1019,8.9552 7.3659,8.4872 7.4859,7.3952 C7.6659,5.7412 8.2529,5.2732 9.4409,5.1532 C8.7809,5.0572 8.4209,4.6382 8.4209,4.0862 C8.4209,3.7622 8.5289,3.4382 8.6369,3.1622 C8.7329,2.9102 8.8409,2.5982 8.8409,2.3232 C8.8409,1.8312 8.5769,1.6632 8.3129,1.5192 C8.1449,1.4352 7.8939,1.2432 7.8939,0.8842 C7.8939,0.4392 8.2649,0.1392 8.7329,0.2482 C9.9919,0.5482 10.5799,1.0522 10.5799,1.9992 C10.5799,2.2742 10.5079,2.5872 10.3399,3.0302 C10.2199,3.3422 10.1479,3.6902 10.1479,3.8822 C10.1479,4.2902 10.2559,4.4702 10.6759,4.5772 C11.2519,4.6972 11.4559,4.9372 11.4559,5.2972 C11.4559,5.7052 11.1439,5.9932 10.7119,5.9932 L10.6759,5.9932 Z" id="Fill-27"></path>
                                    </g>
                                </g>
                            </g>
                        </g>
                    </g>
                </g>
            </g>
        </g>
    </g>
</svg>